<svg xmlns:rdf="http://www.w3.org/1999/02/22-rdf-syntax-ns#" xmlns="http://www.w3.org/2000/svg" height="26" width="26" version="1.1" xmlns:cc="http://creativecommons.org/ns#" xmlns:xlink="http://www.w3.org/1999/xlink" xmlns:dc="http://purl.org/dc/elements/1.1/">
 <metadata>
  <rdf:RDF>
   <cc:Work rdf:about="">
    <dc:format>image/svg+xml</dc:format>
    <dc:type rdf:resource="http://purl.org/dc/dcmitype/StillImage"/>
    <dc:title/>
   </cc:Work>
  </rdf:RDF>
 </metadata>
 <path stroke-linejoin="miter" style="enable-background:accumulate;color:#000000;" d="m13,6.5c3.8079,0,4.5,11,4.5,11-3.5,1.5-5.5,1.5-9,0,0,0,0.69211-11,4.5-11z" stroke-dashoffset="0" stroke="#000" stroke-linecap="butt" stroke-miterlimit="4" stroke-dasharray="none" stroke-width="1" fill="#FFF"/>
 <path stroke-linejoin="miter" style="enable-background:accumulate;color:#000000;" d="m7.5,21c-0.59238,1.9746,1.5234,2.5,5.5,2.5s6.0924-0.52539,5.5-2.5c-1.5-5-2.543-3.5-5.5-3.5s-4-1.5-5.5,3.5z" stroke-dashoffset="0" stroke="#000" stroke-linecap="butt" stroke-miterlimit="4" stroke-dasharray="none" stroke-width="1" fill="#FFF"/>
 <use xlink:href="#path5381" transform="matrix(-1,0,0,1,26,0)" height="26" width="26" y="0" x="0"/>
 <use xlink:href="#path4871" transform="matrix(-1,0,0,1,26,0)" height="26" width="26" y="0" x="0"/>
 <path id="path5381" stroke-linejoin="miter" style="enable-background:accumulate;color:#000000;" d="M3.5,19.5c-6.5-11.5,0.5-23.5,9.5-13-0.96489,4.1612-1.1124,7.8988-4.5,11,0-10-6.5-13.5-5,2z" stroke-dashoffset="0" stroke="#000" stroke-linecap="butt" stroke-miterlimit="4" stroke-dasharray="none" stroke-width="1" fill="#FFF"/>
 <path id="path4871" stroke-linejoin="miter" d="m6.5407,20.564a2.4749,3.0494,0,1,1,-4.9497,0,2.4749,3.0494,0,1,1,4.9497,0z" transform="matrix(1.0101525,0,0,0.81983397,-0.60714285,3.640838)" stroke-dashoffset="0" stroke="#000" stroke-linecap="square" stroke-miterlimit="4" stroke-dasharray="none" stroke-width="1.09886306000000000" fill="#FFF"/>
</svg>
