<?xml version="1.0" encoding="UTF-8"?>
<!--Generator: Apple Native CoreSVG 175.5-->
<!DOCTYPE svg
PUBLIC "-//W3C//DTD SVG 1.1//EN"
       "http://www.w3.org/Graphics/SVG/1.1/DTD/svg11.dtd">
<svg version="1.1" xmlns="http://www.w3.org/2000/svg" xmlns:xlink="http://www.w3.org/1999/xlink" width="184.57" height="201.855">
 <g>
  <rect height="201.855" opacity="0" width="184.57" x="0" y=""/>
  <path d="M184.57 139.551C184.57 102.246 159.277 76.4648 114.746 76.4648L49.1211 76.4648L18.8477 77.832L20.6055 82.3242L44.7266 61.7188L72.9492 34.1797C74.4141 32.6172 75.293 30.7617 75.293 28.2227C75.293 23.1445 71.875 19.6289 66.6016 19.6289C64.5508 19.6289 62.0117 20.7031 60.3516 22.3633L2.92969 78.7109C0.976562 80.5664 0 82.8125 0 85.2539C0 87.5977 0.976562 89.8438 2.92969 91.6992L60.3516 148.047C62.0117 149.805 64.5508 150.781 66.6016 150.781C71.875 150.781 75.293 147.266 75.293 142.188C75.293 139.648 74.4141 137.793 72.9492 136.23L44.7266 108.789L20.6055 88.0859L18.8477 92.5781L49.1211 93.9453L116.211 93.9453C149.512 93.9453 167.09 112.305 167.09 138.574C167.09 164.941 149.512 184.473 116.211 184.473L93.75 184.473C88.3789 184.473 84.8633 188.379 84.8633 193.164C84.8633 197.949 88.3789 201.855 93.75 201.855L116.309 201.855C159.961 201.855 184.57 176.953 184.57 139.551Z" fill="#666"/>
 </g>
</svg>
