<?xml version="1.0" encoding="UTF-8"?>
<!--Generator: Apple Native CoreSVG 175.5-->
<!DOCTYPE svg
PUBLIC "-//W3C//DTD SVG 1.1//EN"
       "http://www.w3.org/Graphics/SVG/1.1/DTD/svg11.dtd">
<svg version="1.1" xmlns="http://www.w3.org/2000/svg" xmlns:xlink="http://www.w3.org/1999/xlink" width="238.839" height="199.316">
 <g>
  <rect height="199.316" opacity="0" width="238.839" x="0" y="0"/>
  <path d="M1.9663 99.9023C-1.84229 105.273-0.0844799 110.059 6.94677 110.059L20.4233 110.059C25.6968 159.766 68.5679 199.219 119.447 199.219C149.232 199.219 176.185 185.645 194.544 164.551C198.158 160.352 197.669 155.078 193.861 152.344C190.052 149.609 185.365 150.586 182.24 154.199C167.103 171.68 144.642 182.617 119.447 182.617C76.8686 182.617 42.2007 151.074 37.2202 110.059L51.771 110.059C58.7046 110.059 60.4624 105.273 56.7515 100L34.8765 68.8477C31.7515 64.3555 27.064 64.2578 23.8413 68.8477ZM44.4468 34.668C40.7358 38.8672 41.2241 44.043 45.1304 46.7773C48.939 49.5117 53.5288 48.6328 56.7515 45.0195C71.9858 27.6367 94.4468 16.6016 119.447 16.6016C161.927 16.6016 196.595 48.1445 201.673 89.2578L187.123 89.2578C180.189 89.2578 178.431 93.9453 182.142 99.3164L204.017 130.469C207.142 134.961 211.83 135.059 215.052 130.469L236.83 99.4141C240.736 93.9453 238.88 89.2578 231.849 89.2578L218.47 89.2578C213.099 39.5508 170.326 0 119.447 0C89.6616 0 62.8061 13.4766 44.4468 34.668Z" fill="#666"/>
 </g>
</svg>
