<?xml version="1.0" encoding="UTF-8"?>
<!--Generator: Apple Native CoreSVG 175.5-->
<!DOCTYPE svg
PUBLIC "-//W3C//DTD SVG 1.1//EN"
       "http://www.w3.org/Graphics/SVG/1.1/DTD/svg11.dtd">
<svg version="1.1" xmlns="http://www.w3.org/2000/svg" xmlns:xlink="http://www.w3.org/1999/xlink" width="184.57" height="201.855">
 <g>
  <rect height="201.855" opacity="0" width="184.57" x="0" y="0"/>
  <path d="M0 139.551C0 176.953 24.5117 201.855 68.2617 201.855L90.8203 201.855C96.1914 201.855 99.707 197.949 99.707 193.164C99.707 188.379 96.1914 184.473 90.8203 184.473L68.3594 184.473C35.0586 184.473 17.3828 164.941 17.3828 138.574C17.3828 112.305 35.0586 93.9453 68.3594 93.9453L135.352 93.9453L165.723 92.5781L163.965 88.0859L139.746 108.789L111.621 136.23C110.059 137.793 109.277 139.648 109.277 142.188C109.277 147.266 112.695 150.781 117.871 150.781C120.02 150.781 122.559 149.805 124.219 148.047L181.641 91.6992C183.594 89.8438 184.57 87.5977 184.57 85.2539C184.57 82.8125 183.594 80.5664 181.641 78.7109L124.219 22.3633C122.559 20.7031 120.02 19.6289 117.871 19.6289C112.695 19.6289 109.277 23.1445 109.277 28.2227C109.277 30.7617 110.059 32.6172 111.621 34.1797L139.746 61.7188L163.965 82.3242L165.723 77.832L135.352 76.4648L69.8242 76.4648C25.1953 76.4648 0 102.246 0 139.551Z" fill="#000"/>
 </g>
</svg>
