<?xml version="1.0" encoding="UTF-8"?>
<!--Generator: Apple Native CoreSVG 175.5-->
<!DOCTYPE svg
PUBLIC "-//W3C//DTD SVG 1.1//EN"
       "http://www.w3.org/Graphics/SVG/1.1/DTD/svg11.dtd">
<svg version="1.1" xmlns="http://www.w3.org/2000/svg" xmlns:xlink="http://www.w3.org/1999/xlink" width="181.348" height="148.145">
 <g>
  <rect height="148.145" opacity="0" width="181.348" x="0" y="0"/>
  <path d="M0 74.0234C0 76.4648 1.07422 78.7109 3.02734 80.5664L67.8711 145.312C69.8242 147.168 71.875 148.047 74.2188 148.047C79.0039 148.047 82.8125 144.531 82.8125 139.648C82.8125 137.305 81.9336 134.961 80.3711 133.496L58.4961 111.23L19.8242 75.9766L17.7734 80.7617L49.2188 82.7148L172.754 82.7148C177.832 82.7148 181.348 79.1016 181.348 74.0234C181.348 68.9453 177.832 65.332 172.754 65.332L49.2188 65.332L17.7734 67.2852L19.8242 72.168L58.4961 36.8164L80.3711 14.5508C81.9336 12.9883 82.8125 10.7422 82.8125 8.39844C82.8125 3.51562 79.0039 0 74.2188 0C71.875 0 69.8242 0.78125 67.6758 2.92969L3.02734 67.4805C1.07422 69.3359 0 71.582 0 74.0234Z" fill="#000"/>
 </g>
</svg>
