<?xml version="1.0" encoding="UTF-8"?>
<!--Generator: Apple Native CoreSVG 175.5-->
<!DOCTYPE svg
PUBLIC "-//W3C//DTD SVG 1.1//EN"
       "http://www.w3.org/Graphics/SVG/1.1/DTD/svg11.dtd">
<svg version="1.1" xmlns="http://www.w3.org/2000/svg" xmlns:xlink="http://www.w3.org/1999/xlink" width="164.258" height="209.277">
 <g>
  <rect height="209.277" opacity="0" width="164.258" x="0" y="0"/>
  <path d="M29.9805 209.277L156.445 209.277C160.742 209.277 164.258 205.859 164.258 201.465C164.258 198.047 161.914 195.02 158.789 193.945C146.484 189.062 143.945 173.145 156.055 160.938C159.766 157.227 164.258 152.441 164.258 142.676L164.258 30.6641C164.258 10.3516 154.199 0 133.984 0L30.2734 0C10.0586 0 0 10.2539 0 30.6641L0 179.102C0 199.219 10.1562 209.277 29.9805 209.277ZM15.7227 152.832L15.7227 30.957C15.7227 21.1914 20.8984 15.7227 30.957 15.7227L133.203 15.7227C143.359 15.7227 148.535 21.1914 148.535 30.957L148.535 140.527C148.535 145.801 145.508 148.828 140.039 148.828L31.6406 148.828C25.293 148.828 20.0195 150.195 15.7227 152.832ZM30.8594 193.555C20.9961 193.555 15.7227 188.281 15.7227 179.004C15.7227 170.215 21.9727 164.551 31.7383 164.551L131.934 164.551C133.203 164.551 134.375 164.453 135.352 164.258C130.762 174.414 131.543 185.156 136.719 193.555ZM27.2461 157.227L40.0391 157.227L40.0391 11.9141L27.2461 11.9141Z" fill="#666"/>
 </g>
</svg>
