<?xml version="1.0" encoding="UTF-8"?>
<!--Generator: Apple Native CoreSVG 175.5-->
<!DOCTYPE svg
PUBLIC "-//W3C//DTD SVG 1.1//EN"
       "http://www.w3.org/Graphics/SVG/1.1/DTD/svg11.dtd">
<svg version="1.1" xmlns="http://www.w3.org/2000/svg" xmlns:xlink="http://www.w3.org/1999/xlink" width="168.262" height="172.363">
 <g>
  <rect height="172.363" opacity="0" width="168.262" x="0" y="0"/>
  <path d="M63.6719 172.363C67.8711 172.363 71.1914 170.508 73.5352 166.895L165.82 21.582C167.578 18.75 168.262 16.6016 168.262 14.3555C168.262 8.98438 164.746 5.46875 159.375 5.46875C155.469 5.46875 153.32 6.73828 150.977 10.4492L63.2812 150.195L17.7734 90.625C15.332 87.207 12.8906 85.8398 9.375 85.8398C3.80859 85.8398 0 89.6484 0 95.0195C0 97.2656 0.976562 99.8047 2.83203 102.148L53.5156 166.699C56.4453 170.508 59.4727 172.363 63.6719 172.363Z" fill="#000"/>
 </g>
</svg>
