<?xml version="1.0" encoding="UTF-8"?>
<!--Generator: Apple Native CoreSVG 175.5-->
<!DOCTYPE svg
PUBLIC "-//W3C//DTD SVG 1.1//EN"
       "http://www.w3.org/Graphics/SVG/1.1/DTD/svg11.dtd">
<svg version="1.1" xmlns="http://www.w3.org/2000/svg" xmlns:xlink="http://www.w3.org/1999/xlink" width="196.777" height="142.871">
 <g>
  <rect height="142.871" opacity="0" width="196.777" x="0" y="0"/>
  <path d="M55.4688 20.3125L188.867 20.3125C193.262 20.3125 196.777 16.8945 196.777 12.5C196.777 8.00781 193.262 4.58984 188.867 4.58984L55.4688 4.58984C50.9766 4.58984 47.5586 8.00781 47.5586 12.5C47.5586 16.8945 50.9766 20.3125 55.4688 20.3125ZM55.4688 79.3945L188.867 79.3945C193.262 79.3945 196.777 75.8789 196.777 71.4844C196.777 67.0898 193.262 63.6719 188.867 63.6719L55.4688 63.6719C50.9766 63.6719 47.5586 67.0898 47.5586 71.4844C47.5586 75.8789 50.9766 79.3945 55.4688 79.3945ZM55.4688 138.379L188.867 138.379C193.262 138.379 196.777 134.961 196.777 130.566C196.777 126.074 193.262 122.656 188.867 122.656L55.4688 122.656C50.9766 122.656 47.5586 126.074 47.5586 130.566C47.5586 134.961 50.9766 138.379 55.4688 138.379ZM12.3047 24.707C19.1406 24.707 24.6094 19.2383 24.6094 12.5C24.6094 5.66406 19.1406 0.195312 12.3047 0.195312C5.46875 0.195312 0 5.66406 0 12.5C0 19.2383 5.46875 24.707 12.3047 24.707ZM12.3047 83.7891C19.1406 83.7891 24.6094 78.3203 24.6094 71.4844C24.6094 64.6484 19.1406 59.1797 12.3047 59.1797C5.46875 59.1797 0 64.6484 0 71.4844C0 78.3203 5.46875 83.7891 12.3047 83.7891ZM12.3047 142.871C19.1406 142.871 24.6094 137.305 24.6094 130.566C24.6094 123.73 19.1406 118.262 12.3047 118.262C5.46875 118.262 0 123.73 0 130.566C0 137.305 5.46875 142.871 12.3047 142.871Z" fill="#666"/>
 </g>
</svg>
